<svg width="44" height="6" viewBox="0 0 44 6" fill="none" xmlns="http://www.w3.org/2000/svg">
<path d="M5.58594 2.77344C5.58594 3.55469 5.3125 4.21875 4.76562 4.76562C4.21875 5.3125 3.55469 5.58594 2.77344 5.58594C1.99219 5.58594 1.32812 5.3125 0.78125 4.76562C0.260417 4.21875 0 3.55469 0 2.77344C0 1.99219 0.273438 1.34115 0.820312 0.820312C1.36719 0.273438 2.01823 0 2.77344 0C3.55469 0 4.21875 0.273438 4.76562 0.820312C5.3125 1.34115 5.58594 1.99219 5.58594 2.77344Z" fill="white"/>
<path d="M24.375 2.77344C24.375 3.55469 24.1016 4.21875 23.5547 4.76562C23.0078 5.3125 22.3438 5.58594 21.5625 5.58594C20.7812 5.58594 20.1172 5.3125 19.5703 4.76562C19.0495 4.21875 18.7891 3.55469 18.7891 2.77344C18.7891 1.99219 19.0625 1.34115 19.6094 0.820312C20.1562 0.273438 20.8073 0 21.5625 0C22.3438 0 23.0078 0.273438 23.5547 0.820312C24.1016 1.34115 24.375 1.99219 24.375 2.77344Z" fill="white"/>
<path d="M43.1641 2.77344C43.1641 3.55469 42.8906 4.21875 42.3438 4.76562C41.7969 5.3125 41.1328 5.58594 40.3516 5.58594C39.5703 5.58594 38.9062 5.3125 38.3594 4.76562C37.8385 4.21875 37.5781 3.55469 37.5781 2.77344C37.5781 1.99219 37.8516 1.34115 38.3984 0.820312C38.9453 0.273438 39.5964 0 40.3516 0C41.1328 0 41.7969 0.273438 42.3438 0.820312C42.8906 1.34115 43.1641 1.99219 43.1641 2.77344Z" fill="white"/>
</svg>
