<svg width="35" height="35" viewBox="0 0 35 35" fill="none" xmlns="http://www.w3.org/2000/svg">
<path d="M13.9589 0C6.24175 0 0 6.09868 0 13.639C0 21.1793 6.24175 27.2779 13.9589 27.2779C16.7142 27.2779 19.2641 26.4882 21.426 25.1468L31.5103 35L35 31.5903L25.044 21.8875C26.8338 19.5935 27.9179 16.751 27.9179 13.639C27.9179 6.09868 21.6761 0 13.9589 0ZM13.9589 3.20917C19.8703 3.20917 24.6334 7.86309 24.6334 13.639C24.6334 19.4148 19.8703 24.0688 13.9589 24.0688C8.04756 24.0688 3.28446 19.4148 3.28446 13.639C3.28446 7.86309 8.04756 3.20917 13.9589 3.20917Z" fill="#1A1F26"/>
</svg>
