<svg width="50" height="50" viewBox="0 0 50 50" fill="none" xmlns="http://www.w3.org/2000/svg">
<circle cx="25" cy="25" r="25" fill="#D9D9D9"/>
<path d="M34 13V25.2978C34 27.3868 33.7679 29.2287 33.3037 30.8235C32.8615 32.4182 32.2315 33.7435 31.4136 34.7992C30.5957 35.8549 29.6009 36.6523 28.4293 37.1914C27.2577 37.7305 25.9535 38 24.5166 38C23.0576 38 21.7423 37.7305 20.5707 37.1914C19.4212 36.6523 18.4264 35.8549 17.5864 34.7992C16.7685 33.7435 16.1274 32.4182 15.6632 30.8235C15.2211 29.2287 15 27.3868 15 25.2978V13H19.0454V24.8935C19.0454 26.7354 19.167 28.2853 19.4101 29.5431C19.6754 30.801 20.0401 31.8118 20.5044 32.5755C20.9686 33.3167 21.5323 33.8558 22.1955 34.1927C22.8586 34.5296 23.5992 34.6981 24.4171 34.6981C25.2571 34.6981 26.0198 34.5409 26.7051 34.2264C27.3903 33.9119 27.9761 33.3841 28.4625 32.6429C28.9488 31.9016 29.3246 30.9021 29.5899 29.6442C29.8551 28.3863 29.9878 26.8028 29.9878 24.8935V13H34Z" fill="white"/>
</svg>
